<?xml version="1.0" encoding="UTF-8"?>
<svg id="Layer_1" xmlns="http://www.w3.org/2000/svg" version="1.1" viewBox="0 0 841.9 595.3">
  <!-- Generator: Adobe Illustrator 30.1.0, SVG Export Plug-In . SVG Version: 2.1.1 Build 136)  -->
  <defs>
    <style>
      .st0 {
        fill: #231f20;
      }

      .st1 {
        fill: #fff;
      }

      .st2 {
        fill: #0e1533;
      }

      .st3 {
        isolation: isolate;
      }

      .st4 {
        fill: #010101;
      }
    </style>
  </defs>
  <g class="st3">
    <g class="st3">
      <path class="st1" d="M269.8-259h-2.2v-14.1h6.9c3,0,4.8,1.6,4.8,3.8s-1.8,3.9-4.8,3.9h-4.8v6.4ZM274.6-267.3c1.6,0,2.5-.8,2.5-2s-.9-1.9-2.5-1.9h-4.8v3.9h4.8Z"/>
      <path class="st1" d="M295-259h-2.8l-4.7-6.4h-2.4v6.4h-2.2v-14.1h6.9c3,0,4.8,1.6,4.8,3.8s-1.7,3.8-4.5,3.9l4.9,6.4ZM285.1-267.3h4.8c1.6,0,2.5-.8,2.5-2s-.9-1.9-2.5-1.9h-4.8v3.9Z"/>
      <path class="st1" d="M300.5-262.4l-1.6,3.4h-2.4l6.5-14.1h2.3l6.5,14.1h-2.4l-1.6-3.4h-7.2ZM304.1-270.6l-2.7,6.3h5.5l-2.8-6.3Z"/>
      <path class="st1" d="M328.4-263.3s-.4.9-.5,1c-1.7,2.5-3.9,3.5-6.9,3.6h-.4c-4.5,0-7.8-3.1-7.8-7.3s3.4-7.3,8-7.3,6.3,1.8,7.5,4.6h-2.4c-1-1.6-2.8-2.6-5.1-2.6-3.4,0-5.8,2.2-5.8,5.3s.3,2,.7,2.8h0c.9,1.5,2.7,2.5,4.8,2.6h.4c1.9,0,4-.9,4.9-2.7h2.5Z"/>
      <path class="st1" d="M330.8-266.1c0-4.3,3.4-7.3,8-7.3s8,3,8,7.3-3.4,7.3-8,7.3-8-3-8-7.3ZM344.6-266.1c0-3.2-2.4-5.3-5.8-5.3s-5.8,2.2-5.8,5.3,2.4,5.4,5.8,5.4,5.8-2.2,5.8-5.4Z"/>
      <path class="st1" d="M366.3-259h-2.5l-4-11.2-4,11.2h-2.5l-5.1-14.1h2.4l4,11.4,4.1-11.4h2.4l4.1,11.4,4-11.4h2.4l-5.1,14.1Z"/>
      <path class="st1" d="M386.9-259h-1.9l-8.4-10.4v10.4h-2.2v-14.1h1.9l8.3,10.4v-10.4h2.2v14.1Z"/>
      <path class="st1" d="M391.5-259v-14.1h2.2v14.1h-2.2Z"/>
      <path class="st1" d="M400.8-262.4l-1.6,3.4h-2.4l6.5-14.1h2.3l6.5,14.1h-2.4l-1.6-3.4h-7.2ZM404.4-270.6l-2.7,6.3h5.5l-2.8-6.3Z"/>
      <path class="st1" d="M422.9-262.8v3.8h-2.2v-14.1h2.2v7.3l7.3-7.3h2.9l-6.3,6.4,6.9,7.7h-2.8l-5.6-6.2-2.3,2.4Z"/>
      <path class="st1" d="M439.2-262.4l-1.6,3.4h-2.4l6.5-14.1h2.3l6.5,14.1h-2.4l-1.6-3.4h-7.2ZM442.8-270.6l-2.7,6.3h5.5l-2.8-6.3Z"/>
      <path class="st1" d="M467.5-259v-10.9l-4.8,9.4h-2.2l-4.8-9.4v10.9h-2.2v-14.1h3l5.1,10.1,5.2-10.1h3v14.1h-2.2Z"/>
      <path class="st1" d="M474.2-259v-14.1h2.2v14.1h-2.2Z"/>
      <path class="st1" d="M492-259h-11v-14.1h10.8v1.9h-8.6v4.1h7.5v1.9h-7.5v4.2h8.8v1.9Z"/>
      <path class="st1" d="M508.1-259h-1.9l-8.4-10.4v10.4h-2.2v-14.1h1.9l8.3,10.4v-10.4h2.2v14.1Z"/>
      <path class="st1" d="M512.7-259v-14.1h2.2v14.1h-2.2Z"/>
      <path class="st1" d="M522-262.4l-1.6,3.4h-2.4l6.5-14.1h2.3l6.5,14.1h-2.4l-1.6-3.4h-7.2ZM525.6-270.6l-2.7,6.3h5.5l-2.8-6.3Z"/>
      <path class="st1" d="M548.3-259h-2.8l-4.7-6.4h-2.4v6.4h-2.2v-14.1h6.9c3,0,4.8,1.6,4.8,3.8s-1.7,3.8-4.5,3.9l4.9,6.4ZM538.4-267.3h4.8c1.6,0,2.5-.8,2.5-2s-.9-1.9-2.5-1.9h-4.8v3.9Z"/>
      <path class="st1" d="M550.2-260.6l1.3-1.5c1.4,1,3.4,1.5,5.3,1.5s3.7-.8,3.7-2.2-1.8-1.8-3.5-2.1h-.4c-4.6-.8-5.8-1.9-5.8-4,0-3.4,3.4-4.4,6.2-4.4s4.1.7,5.7,1.6l-1.3,1.5c-1.5-.8-2.9-1.2-4.4-1.2-2.6,0-3.9.9-3.9,2.3s.9,1.7,3.9,2.1c2,.3,5.8.8,5.8,4s-2.3,4.2-6,4.2-5.2-1-6.5-1.9Z"/>
      <path class="st1" d="M568.7-262.8v3.8h-2.2v-14.1h2.2v7.3l7.3-7.3h2.9l-6.3,6.4,6.9,7.7h-2.8l-5.6-6.2-2.3,2.4Z"/>
      <path class="st1" d="M585-262.4l-1.6,3.4h-2.4l6.5-14.1h2.3l6.5,14.1h-2.4l-1.6-3.4h-7.2ZM588.6-270.6l-2.7,6.3h5.5l-2.8-6.3Z"/>
    </g>
  </g>
  <path class="st1" d="M614.5-407.8c-13.5,0-24.4,14-24.4,31.3s10.9,31.3,24.4,31.3,24.4-14,24.4-31.3-10.9-31.3-24.4-31.3M663.5-376.5c0,34.7-21.9,62.8-49,62.8s-49-28.1-49-62.8,21.9-62.8,49-62.8,49,28.1,49,62.8"/>
  <path class="st1" d="M223-380.8c0,1.7,1,2.8,2.8,2.8,2.6,0,16.8-3.8,29.6-3.8s7.4-.7,7.4-4.8c0-9-10.8-28-16.3-28-7.9,0-23.5,23.2-23.5,33.8M261.3-316.2c-1.3,0-5.5.4-5.5-1.7,0-4.1,11.2-18.6,11.2-35.3s-6.3-9-12.8-9c-13.3,0-34.4,2.3-34.4,18.9s9.5,23.9,9.5,26.1-.9,1-2.8,1h-20.8c-7.4,0-9.5-13.1-9.5-32.1,0-62.4,43.3-91.3,49.7-91.3s42.4,20.8,42.4,88.4-6.3,35-10.6,35h-16.3Z"/>
  <path class="st1" d="M296.3-448.4v143.6h131.4v-143.6h-131.4ZM391.2-316.2c-1.8,0-5.2.4-5.2-2.2s2.9-10.8,5.2-26.2c1.7-10.8,3.1-24.5,3.1-40.1s.4-21-4.4-21-9.8,14.4-11.2,17.9c-12.2,29.9-10.2,36.6-16.7,36.6s-7.8-6.7-20.8-36.6c-1.5-3.2-6.3-17.9-10.8-17.9s-4.7,17.9-4.7,21c0,38,9.2,64.3,9.2,66.3s-3.5,2.2-5.2,2.2c-3.6,0-23.6,2.8-23.6-51.9s21-69.3,23.5-69.3c5.7,0,7.7,0,14.9,9.8,13.7,18.8,14.6,29.4,17.5,29.4s3.1-10.6,18.5-29.4c8.2-9.9,10.3-9.8,16-9.8s21.4-2.6,21.4,69.3-23,51.9-26.7,51.9Z"/>
  <path class="st1" d="M443.7-315.7c-3.6,0-8,2.8-8-51.9s7.6-69.3,10.1-69.3h15.7c1.9,0,5.5-.4,5.5,2.3s-7.7,25.8-7.7,53.9,7.3,61.3,7.3,63.4-.9,1.6-2.2,1.6h-20.7Z"/>
  <path class="st1" d="M472.1-373.4c0-31.6,17.8-66.1,53.2-66.1s32.2,5.4,32.2,21.1-5.8,13.3-15,13.3,2-13.7-16.5-13.7-30.3,21.7-30.3,39.9c0,27.8,18.9,39,31.6,39,23.7,0,25.8-21.3,27.1-21.3,2,0,3.2,11.7,3.2,13.1,0,21.6-16.6,34.1-37,34.1-33.1,0-48.5-30-48.5-59.4"/>
  <g class="st3">
    <g class="st3">
      <path class="st2" d="M-1559.2-259h-2.2v-14.1h6.9c3,0,4.8,1.6,4.8,3.8s-1.8,3.9-4.8,3.9h-4.8v6.4ZM-1554.5-267.3c1.6,0,2.5-.8,2.5-2s-.9-1.9-2.5-1.9h-4.8v3.9h4.8Z"/>
      <path class="st2" d="M-1534.1-259h-2.8l-4.7-6.4h-2.4v6.4h-2.2v-14.1h6.9c3,0,4.8,1.6,4.8,3.8s-1.7,3.8-4.5,3.9l4.9,6.4ZM-1544-267.3h4.8c1.6,0,2.5-.8,2.5-2s-.9-1.9-2.5-1.9h-4.8v3.9Z"/>
      <path class="st2" d="M-1528.6-262.4l-1.6,3.4h-2.4l6.5-14.1h2.3l6.5,14.1h-2.4l-1.6-3.4h-7.2ZM-1525-270.6l-2.7,6.3h5.5l-2.8-6.3Z"/>
      <path class="st2" d="M-1500.6-263.3s-.4.9-.5,1c-1.7,2.5-3.9,3.5-6.9,3.6h-.4c-4.5,0-7.8-3.1-7.8-7.3s3.4-7.3,8-7.3,6.3,1.8,7.5,4.6h-2.4c-1-1.6-2.8-2.6-5.1-2.6-3.4,0-5.8,2.2-5.8,5.3s.3,2,.7,2.8h0c.9,1.5,2.7,2.5,4.8,2.6h.4c1.9,0,4-.9,4.9-2.7h2.5Z"/>
      <path class="st2" d="M-1498.2-266.1c0-4.3,3.4-7.3,8-7.3s8,3,8,7.3-3.4,7.3-8,7.3-8-3-8-7.3ZM-1484.4-266.1c0-3.2-2.4-5.3-5.8-5.3s-5.8,2.2-5.8,5.3,2.4,5.4,5.8,5.4,5.8-2.2,5.8-5.4Z"/>
      <path class="st2" d="M-1462.7-259h-2.5l-4-11.2-4,11.2h-2.5l-5.1-14.1h2.4l4,11.4,4.1-11.4h2.4l4.1,11.4,4-11.4h2.4l-5.1,14.1Z"/>
      <path class="st2" d="M-1442.1-259h-1.9l-8.4-10.4v10.4h-2.2v-14.1h1.9l8.3,10.4v-10.4h2.2v14.1Z"/>
      <path class="st2" d="M-1437.5-259v-14.1h2.2v14.1h-2.2Z"/>
      <path class="st2" d="M-1428.2-262.4l-1.6,3.4h-2.4l6.5-14.1h2.3l6.5,14.1h-2.4l-1.6-3.4h-7.2ZM-1424.6-270.6l-2.7,6.3h5.5l-2.8-6.3Z"/>
      <path class="st2" d="M-1406.2-262.8v3.8h-2.2v-14.1h2.2v7.3l7.3-7.3h2.9l-6.3,6.4,6.9,7.7h-2.8l-5.6-6.2-2.3,2.4Z"/>
      <path class="st2" d="M-1389.9-262.4l-1.6,3.4h-2.4l6.5-14.1h2.3l6.5,14.1h-2.4l-1.6-3.4h-7.2ZM-1386.3-270.6l-2.7,6.3h5.5l-2.8-6.3Z"/>
      <path class="st2" d="M-1361.6-259v-10.9l-4.8,9.4h-2.2l-4.8-9.4v10.9h-2.2v-14.1h3l5.1,10.1,5.2-10.1h3v14.1h-2.2Z"/>
      <path class="st2" d="M-1354.8-259v-14.1h2.2v14.1h-2.2Z"/>
      <path class="st2" d="M-1337-259h-11v-14.1h10.8v1.9h-8.6v4.1h7.5v1.9h-7.5v4.2h8.8v1.9Z"/>
      <path class="st2" d="M-1321-259h-1.9l-8.4-10.4v10.4h-2.2v-14.1h1.9l8.3,10.4v-10.4h2.2v14.1Z"/>
      <path class="st2" d="M-1316.4-259v-14.1h2.2v14.1h-2.2Z"/>
      <path class="st2" d="M-1307.1-262.4l-1.6,3.4h-2.4l6.5-14.1h2.3l6.5,14.1h-2.4l-1.6-3.4h-7.2ZM-1303.5-270.6l-2.7,6.3h5.5l-2.8-6.3Z"/>
      <path class="st2" d="M-1280.7-259h-2.8l-4.7-6.4h-2.4v6.4h-2.2v-14.1h6.9c3,0,4.8,1.6,4.8,3.8s-1.7,3.8-4.5,3.9l4.9,6.4ZM-1290.7-267.3h4.8c1.6,0,2.5-.8,2.5-2s-.9-1.9-2.5-1.9h-4.8v3.9Z"/>
      <path class="st2" d="M-1278.8-260.6l1.3-1.5c1.4,1,3.4,1.5,5.3,1.5s3.7-.8,3.7-2.2-1.8-1.8-3.5-2.1h-.4c-4.6-.8-5.8-1.9-5.8-4,0-3.4,3.4-4.4,6.2-4.4s4.1.7,5.7,1.6l-1.3,1.5c-1.5-.8-2.9-1.2-4.4-1.2-2.6,0-3.9.9-3.9,2.3s.9,1.7,3.9,2.1c2,.3,5.8.8,5.8,4s-2.3,4.2-6,4.2-5.2-1-6.5-1.9Z"/>
      <path class="st2" d="M-1260.4-262.8v3.8h-2.2v-14.1h2.2v7.3l7.3-7.3h2.9l-6.3,6.4,6.9,7.7h-2.8l-5.6-6.2-2.3,2.4Z"/>
      <path class="st2" d="M-1244.1-262.4l-1.6,3.4h-2.4l6.5-14.1h2.3l6.5,14.1h-2.4l-1.6-3.4h-7.2ZM-1240.5-270.6l-2.7,6.3h5.5l-2.8-6.3Z"/>
    </g>
  </g>
  <path class="st2" d="M-1214.5-407.8c-13.5,0-24.4,14-24.4,31.3s10.9,31.3,24.4,31.3,24.4-14,24.4-31.3-10.9-31.3-24.4-31.3M-1165.5-376.5c0,34.7-21.9,62.8-49,62.8s-49-28.1-49-62.8,21.9-62.8,49-62.8,49,28.1,49,62.8"/>
  <path class="st2" d="M-1606.1-380.8c0,1.7,1,2.8,2.8,2.8,2.6,0,16.8-3.8,29.6-3.8s7.4-.7,7.4-4.8c0-9-10.8-28-16.3-28-7.9,0-23.5,23.2-23.5,33.8M-1567.7-316.2c-1.3,0-5.5.4-5.5-1.7,0-4.1,11.2-18.6,11.2-35.3s-6.3-9-12.8-9c-13.3,0-34.4,2.3-34.4,18.9s9.5,23.9,9.5,26.1-.9,1-2.8,1h-20.8c-7.4,0-9.5-13.1-9.5-32.1,0-62.4,43.3-91.3,49.7-91.3s42.4,20.8,42.4,88.4-6.3,35-10.6,35h-16.3Z"/>
  <path class="st2" d="M-1532.8-448.4v143.6h131.4v-143.6h-131.4ZM-1437.9-316.2c-1.8,0-5.2.4-5.2-2.2s2.9-10.8,5.2-26.2c1.7-10.8,3.1-24.5,3.1-40.1s.4-21-4.4-21-9.8,14.4-11.2,17.9c-12.2,29.9-10.2,36.6-16.7,36.6s-7.8-6.7-20.8-36.6c-1.5-3.2-6.3-17.9-10.8-17.9s-4.7,17.9-4.7,21c0,38,9.2,64.3,9.2,66.3s-3.5,2.2-5.2,2.2c-3.6,0-23.6,2.8-23.6-51.9s21-69.3,23.5-69.3c5.7,0,7.7,0,14.9,9.8,13.7,18.8,14.6,29.4,17.5,29.4s3.1-10.6,18.5-29.4c8.2-9.9,10.3-9.8,16-9.8s21.4-2.6,21.4,69.3-23,51.9-26.7,51.9Z"/>
  <path class="st2" d="M-1385.4-315.7c-3.6,0-8,2.8-8-51.9s7.6-69.3,10.1-69.3h15.7c1.9,0,5.5-.4,5.5,2.3s-7.7,25.8-7.7,53.9,7.3,61.3,7.3,63.4-.9,1.6-2.2,1.6h-20.7Z"/>
  <path class="st2" d="M-1357-373.4c0-31.6,17.8-66.1,53.2-66.1s32.2,5.4,32.2,21.1-5.8,13.3-15,13.3,2-13.7-16.5-13.7-30.3,21.7-30.3,39.9c0,27.8,18.9,39,31.6,39,23.7,0,25.8-21.3,27.1-21.3,2,0,3.2,11.7,3.2,13.1,0,21.6-16.6,34.1-37,34.1-33.1,0-48.5-30-48.5-59.4"/>
  <g class="st3">
    <g class="st3">
      <path class="st4" d="M-629.8-259h-2.2v-14.1h6.9c3,0,4.8,1.6,4.8,3.8s-1.8,3.9-4.8,3.9h-4.8v6.4ZM-625.1-267.3c1.6,0,2.5-.8,2.5-2s-.9-1.9-2.5-1.9h-4.8v3.9h4.8Z"/>
      <path class="st4" d="M-604.7-259h-2.8l-4.7-6.4h-2.4v6.4h-2.2v-14.1h6.9c3,0,4.8,1.6,4.8,3.8s-1.7,3.8-4.5,3.9l4.9,6.4ZM-614.6-267.3h4.8c1.6,0,2.5-.8,2.5-2s-.9-1.9-2.5-1.9h-4.8v3.9Z"/>
      <path class="st4" d="M-599.2-262.4l-1.6,3.4h-2.4l6.5-14.1h2.3l6.5,14.1h-2.4l-1.6-3.4h-7.2ZM-595.6-270.6l-2.7,6.3h5.5l-2.8-6.3Z"/>
      <path class="st4" d="M-571.3-263.3s-.4.9-.5,1c-1.7,2.5-3.9,3.5-6.9,3.6h-.4c-4.5,0-7.8-3.1-7.8-7.3s3.4-7.3,8-7.3,6.3,1.8,7.5,4.6h-2.4c-1-1.6-2.8-2.6-5.1-2.6-3.4,0-5.8,2.2-5.8,5.3s.3,2,.7,2.8h0c.9,1.5,2.7,2.5,4.8,2.6h.4c1.9,0,4-.9,4.9-2.7h2.5Z"/>
      <path class="st4" d="M-568.8-266.1c0-4.3,3.4-7.3,8-7.3s8,3,8,7.3-3.4,7.3-8,7.3-8-3-8-7.3ZM-555-266.1c0-3.2-2.4-5.3-5.8-5.3s-5.8,2.2-5.8,5.3,2.4,5.4,5.8,5.4,5.8-2.2,5.8-5.4Z"/>
      <path class="st4" d="M-533.3-259h-2.5l-4-11.2-4,11.2h-2.5l-5.1-14.1h2.4l4,11.4,4.1-11.4h2.4l4.1,11.4,4-11.4h2.4l-5.1,14.1Z"/>
      <path class="st4" d="M-512.7-259h-1.9l-8.4-10.4v10.4h-2.2v-14.1h1.9l8.3,10.4v-10.4h2.2v14.1Z"/>
      <path class="st4" d="M-508.1-259v-14.1h2.2v14.1h-2.2Z"/>
      <path class="st4" d="M-498.8-262.4l-1.6,3.4h-2.4l6.5-14.1h2.3l6.5,14.1h-2.4l-1.6-3.4h-7.2ZM-495.3-270.6l-2.7,6.3h5.5l-2.8-6.3Z"/>
      <path class="st4" d="M-476.8-262.8v3.8h-2.2v-14.1h2.2v7.3l7.3-7.3h2.9l-6.3,6.4,6.9,7.7h-2.8l-5.6-6.2-2.3,2.4Z"/>
      <path class="st4" d="M-460.5-262.4l-1.6,3.4h-2.4l6.5-14.1h2.3l6.5,14.1h-2.4l-1.6-3.4h-7.2ZM-456.9-270.6l-2.7,6.3h5.5l-2.8-6.3Z"/>
      <path class="st4" d="M-432.2-259v-10.9l-4.8,9.4h-2.2l-4.8-9.4v10.9h-2.2v-14.1h3l5.1,10.1,5.2-10.1h3v14.1h-2.2Z"/>
      <path class="st4" d="M-425.4-259v-14.1h2.2v14.1h-2.2Z"/>
      <path class="st4" d="M-407.6-259h-11v-14.1h10.8v1.9h-8.6v4.1h7.5v1.9h-7.5v4.2h8.8v1.9Z"/>
      <path class="st4" d="M-391.6-259h-1.9l-8.4-10.4v10.4h-2.2v-14.1h1.9l8.3,10.4v-10.4h2.2v14.1Z"/>
      <path class="st4" d="M-387-259v-14.1h2.2v14.1h-2.2Z"/>
      <path class="st4" d="M-377.7-262.4l-1.6,3.4h-2.4l6.5-14.1h2.3l6.5,14.1h-2.4l-1.6-3.4h-7.2ZM-374.1-270.6l-2.7,6.3h5.5l-2.8-6.3Z"/>
      <path class="st4" d="M-351.3-259h-2.8l-4.7-6.4h-2.4v6.4h-2.2v-14.1h6.9c3,0,4.8,1.6,4.8,3.8s-1.7,3.8-4.5,3.9l4.9,6.4ZM-361.3-267.3h4.8c1.6,0,2.5-.8,2.5-2s-.9-1.9-2.5-1.9h-4.8v3.9Z"/>
      <path class="st4" d="M-349.4-260.6l1.3-1.5c1.4,1,3.4,1.5,5.3,1.5s3.7-.8,3.7-2.2-1.8-1.8-3.5-2.1h-.4c-4.6-.8-5.8-1.9-5.8-4,0-3.4,3.4-4.4,6.2-4.4s4.1.7,5.7,1.6l-1.3,1.5c-1.5-.8-2.9-1.2-4.4-1.2-2.6,0-3.9.9-3.9,2.3s.9,1.7,3.9,2.1c2,.3,5.8.8,5.8,4s-2.3,4.2-6,4.2-5.2-1-6.5-1.9Z"/>
      <path class="st4" d="M-331-262.8v3.8h-2.2v-14.1h2.2v7.3l7.3-7.3h2.9l-6.3,6.4,6.9,7.7h-2.8l-5.6-6.2-2.3,2.4Z"/>
      <path class="st4" d="M-314.7-262.4l-1.6,3.4h-2.4l6.5-14.1h2.3l6.5,14.1h-2.4l-1.6-3.4h-7.2ZM-311.1-270.6l-2.7,6.3h5.5l-2.8-6.3Z"/>
    </g>
  </g>
  <path class="st0" d="M-285.1-407.8c-13.5,0-24.4,14-24.4,31.3s10.9,31.3,24.4,31.3,24.4-14,24.4-31.3-10.9-31.3-24.4-31.3M-236.2-376.5c0,34.7-21.9,62.8-49,62.8s-49-28.1-49-62.8,21.9-62.8,49-62.8,49,28.1,49,62.8"/>
  <path class="st0" d="M-676.7-380.8c0,1.7,1,2.8,2.8,2.8,2.6,0,16.8-3.8,29.6-3.8s7.4-.7,7.4-4.8c0-9-10.8-28-16.3-28-7.9,0-23.5,23.2-23.5,33.8M-638.4-316.2c-1.3,0-5.5.4-5.5-1.7,0-4.1,11.2-18.6,11.2-35.3s-6.3-9-12.8-9c-13.3,0-34.4,2.3-34.4,18.9s9.5,23.9,9.5,26.1-.9,1-2.8,1h-20.8c-7.4,0-9.5-13.1-9.5-32.1,0-62.4,43.3-91.3,49.7-91.3s42.4,20.8,42.4,88.4-6.3,35-10.6,35h-16.3Z"/>
  <path class="st0" d="M-603.4-448.4v143.6h131.4v-143.6h-131.4ZM-508.5-316.2c-1.8,0-5.2.4-5.2-2.2s2.9-10.8,5.2-26.2c1.7-10.8,3.1-24.5,3.1-40.1s.4-21-4.4-21-9.8,14.4-11.2,17.9c-12.2,29.9-10.2,36.6-16.7,36.6s-7.8-6.7-20.8-36.6c-1.5-3.2-6.3-17.9-10.8-17.9s-4.7,17.9-4.7,21c0,38,9.2,64.3,9.2,66.3s-3.5,2.2-5.2,2.2c-3.6,0-23.6,2.8-23.6-51.9s21-69.3,23.5-69.3c5.7,0,7.7,0,14.9,9.8,13.7,18.8,14.6,29.4,17.5,29.4s3.1-10.6,18.5-29.4c8.2-9.9,10.3-9.8,16-9.8s21.4-2.6,21.4,69.3-23,51.9-26.7,51.9Z"/>
  <path class="st0" d="M-456-315.7c-3.6,0-8,2.8-8-51.9s7.6-69.3,10.1-69.3h15.7c1.9,0,5.5-.4,5.5,2.3s-7.7,25.8-7.7,53.9,7.3,61.3,7.3,63.4-.9,1.6-2.2,1.6h-20.7Z"/>
  <path class="st0" d="M-427.6-373.4c0-31.6,17.8-66.1,53.2-66.1s32.2,5.4,32.2,21.1-5.8,13.3-15,13.3,2-13.7-16.5-13.7-30.3,21.7-30.3,39.9c0,27.8,18.9,39,31.6,39,23.7,0,25.8-21.3,27.1-21.3,2,0,3.2,11.7,3.2,13.1,0,21.6-16.6,34.1-37,34.1-33.1,0-48.5-30-48.5-59.4"/>
  <g class="st3">
    <g class="st3">
      <path class="st1" d="M257.8,394.5h-2.2v-14.1h6.9c3,0,4.8,1.6,4.8,3.8s-1.8,3.9-4.8,3.9h-4.8v6.4ZM262.6,386.2c1.6,0,2.5-.8,2.5-2s-.9-1.9-2.5-1.9h-4.8v3.9h4.8Z"/>
      <path class="st1" d="M283,394.5h-2.8l-4.7-6.4h-2.4v6.4h-2.2v-14.1h6.9c3,0,4.8,1.6,4.8,3.8s-1.7,3.8-4.5,3.9l4.9,6.4ZM273,386.2h4.8c1.6,0,2.5-.8,2.5-2s-.9-1.9-2.5-1.9h-4.8v3.9Z"/>
      <path class="st1" d="M288.5,391l-1.6,3.4h-2.4l6.5-14.1h2.3l6.5,14.1h-2.4l-1.6-3.4h-7.2ZM292.1,382.9l-2.7,6.3h5.5l-2.8-6.3Z"/>
      <path class="st1" d="M316.4,390.2s-.4.9-.5,1c-1.7,2.5-3.9,3.5-6.9,3.6h-.4c-4.5,0-7.8-3.1-7.8-7.3s3.4-7.3,8-7.3,6.3,1.8,7.5,4.6h-2.4c-1-1.6-2.8-2.6-5.1-2.6-3.4,0-5.8,2.2-5.8,5.3s.3,2,.7,2.8h0c.9,1.5,2.7,2.5,4.8,2.6h.4c1.9,0,4-.9,4.9-2.7h2.5Z"/>
      <path class="st1" d="M318.8,387.4c0-4.3,3.4-7.3,8-7.3s8,3,8,7.3-3.4,7.3-8,7.3-8-3-8-7.3ZM332.6,387.4c0-3.2-2.4-5.3-5.8-5.3s-5.8,2.2-5.8,5.3,2.4,5.4,5.8,5.4,5.8-2.2,5.8-5.4Z"/>
      <path class="st1" d="M354.3,394.5h-2.5l-4-11.2-4,11.2h-2.5l-5.1-14.1h2.4l4,11.4,4.1-11.4h2.4l4.1,11.4,4-11.4h2.4l-5.1,14.1Z"/>
      <path class="st1" d="M374.9,394.5h-1.9l-8.4-10.4v10.4h-2.2v-14.1h1.9l8.3,10.4v-10.4h2.2v14.1Z"/>
      <path class="st1" d="M379.5,394.5v-14.1h2.2v14.1h-2.2Z"/>
      <path class="st1" d="M388.8,391l-1.6,3.4h-2.4l6.5-14.1h2.3l6.5,14.1h-2.4l-1.6-3.4h-7.2ZM392.4,382.9l-2.7,6.3h5.5l-2.8-6.3Z"/>
      <path class="st1" d="M410.9,390.7v3.8h-2.2v-14.1h2.2v7.3l7.3-7.3h2.9l-6.3,6.4,6.9,7.7h-2.8l-5.6-6.2-2.3,2.4Z"/>
      <path class="st1" d="M427.2,391l-1.6,3.4h-2.4l6.5-14.1h2.3l6.5,14.1h-2.4l-1.6-3.4h-7.2ZM430.8,382.9l-2.7,6.3h5.5l-2.8-6.3Z"/>
      <path class="st1" d="M455.4,394.5v-10.9l-4.8,9.4h-2.2l-4.8-9.4v10.9h-2.2v-14.1h3l5.1,10.1,5.2-10.1h3v14.1h-2.2Z"/>
      <path class="st1" d="M462.2,394.5v-14.1h2.2v14.1h-2.2Z"/>
      <path class="st1" d="M480,394.5h-11v-14.1h10.8v1.9h-8.6v4.1h7.5v1.9h-7.5v4.2h8.8v1.9Z"/>
      <path class="st1" d="M496.1,394.5h-1.9l-8.4-10.4v10.4h-2.2v-14.1h1.9l8.3,10.4v-10.4h2.2v14.1Z"/>
      <path class="st1" d="M500.7,394.5v-14.1h2.2v14.1h-2.2Z"/>
      <path class="st1" d="M510,391l-1.6,3.4h-2.4l6.5-14.1h2.3l6.5,14.1h-2.4l-1.6-3.4h-7.2ZM513.6,382.9l-2.7,6.3h5.5l-2.8-6.3Z"/>
      <path class="st1" d="M536.3,394.5h-2.8l-4.7-6.4h-2.4v6.4h-2.2v-14.1h6.9c3,0,4.8,1.6,4.8,3.8s-1.7,3.8-4.5,3.9l4.9,6.4ZM526.4,386.2h4.8c1.6,0,2.5-.8,2.5-2s-.9-1.9-2.5-1.9h-4.8v3.9Z"/>
      <path class="st1" d="M538.2,392.9l1.3-1.5c1.4,1,3.4,1.5,5.3,1.5s3.7-.8,3.7-2.2-1.8-1.8-3.5-2.1h-.4c-4.6-.8-5.8-1.9-5.8-4,0-3.4,3.4-4.4,6.2-4.4s4.1.7,5.7,1.6l-1.3,1.5c-1.5-.8-2.9-1.2-4.4-1.2-2.6,0-3.9.9-3.9,2.3s.9,1.7,3.9,2.1c2,.3,5.8.8,5.8,4s-2.3,4.2-6,4.2-5.2-1-6.5-1.9Z"/>
      <path class="st1" d="M556.6,390.7v3.8h-2.2v-14.1h2.2v7.3l7.3-7.3h2.9l-6.3,6.4,6.9,7.7h-2.8l-5.6-6.2-2.3,2.4Z"/>
      <path class="st1" d="M573,391l-1.6,3.4h-2.4l6.5-14.1h2.3l6.5,14.1h-2.4l-1.6-3.4h-7.2ZM576.6,382.9l-2.7,6.3h5.5l-2.8-6.3Z"/>
    </g>
  </g>
  <path class="st1" d="M602.5,245.7c-13.5,0-24.4,14-24.4,31.3s10.9,31.3,24.4,31.3,24.4-14,24.4-31.3-10.9-31.3-24.4-31.3M651.5,277c0,34.7-21.9,62.8-49,62.8s-49-28.1-49-62.8,21.9-62.8,49-62.8,49,28.1,49,62.8"/>
  <path class="st1" d="M211,272.6c0,1.7,1,2.8,2.8,2.8,2.6,0,16.8-3.8,29.6-3.8s7.4-.7,7.4-4.8c0-9-10.8-28-16.3-28-7.9,0-23.5,23.2-23.5,33.8M249.3,337.3c-1.3,0-5.5.4-5.5-1.7,0-4.1,11.2-18.6,11.2-35.3s-6.3-9-12.8-9c-13.3,0-34.4,2.3-34.4,18.9s9.5,23.9,9.5,26.1-.9,1-2.8,1h-20.8c-7.4,0-9.5-13.1-9.5-32.1,0-62.4,43.3-91.3,49.7-91.3s42.4,20.8,42.4,88.4-6.3,35-10.6,35h-16.3Z"/>
  <path class="st1" d="M284.2,212.3v129.1c0,4,3.2,7.2,7.2,7.2h117c4,0,7.2-3.2,7.2-7.2v-129.1c0-4-3.2-7.2-7.2-7.2h-117c-4,0-7.2,3.2-7.2,7.2ZM379.2,337.3c-1.8,0-5.2.4-5.2-2.2s2.9-10.8,5.2-26.2c1.7-10.8,3.1-24.5,3.1-40.1s.4-21-4.4-21-9.8,14.4-11.2,17.9c-12.2,29.9-10.2,36.6-16.7,36.6s-7.8-6.7-20.8-36.6c-1.5-3.2-6.3-17.9-10.8-17.9s-4.7,17.9-4.7,21c0,38,9.2,64.3,9.2,66.3s-3.5,2.2-5.2,2.2c-3.6,0-23.6,2.8-23.6-51.9s21-69.3,23.5-69.3c5.7,0,7.7,0,14.9,9.8,13.7,18.8,14.6,29.4,17.5,29.4s3.1-10.6,18.5-29.4c8.2-9.9,10.3-9.8,16-9.8s21.4-2.6,21.4,69.3-23,51.9-26.7,51.9Z"/>
  <path class="st1" d="M431.7,337.8c-3.6,0-8,2.8-8-51.9s7.6-69.3,10.1-69.3h15.7c1.9,0,5.5-.4,5.5,2.3s-7.7,25.8-7.7,53.9,7.3,61.3,7.3,63.4-.9,1.6-2.2,1.6h-20.7Z"/>
  <path class="st1" d="M460.1,280.1c0-31.6,17.8-66.1,53.2-66.1s32.2,5.4,32.2,21.1-5.8,13.3-15,13.3,2-13.7-16.5-13.7-30.3,21.7-30.3,39.9c0,27.8,18.9,39,31.6,39,23.7,0,25.8-21.3,27.1-21.3,2,0,3.2,11.7,3.2,13.1,0,21.6-16.6,34.1-37,34.1-33.1,0-48.5-30-48.5-59.4"/>
  <g class="st3">
    <g class="st3">
      <path class="st2" d="M-641.9,394.5h-2.2v-14.1h6.9c3,0,4.8,1.6,4.8,3.8s-1.8,3.9-4.8,3.9h-4.8v6.4ZM-637.1,386.2c1.6,0,2.5-.8,2.5-2s-.9-1.9-2.5-1.9h-4.8v3.9h4.8Z"/>
      <path class="st2" d="M-616.7,394.5h-2.8l-4.7-6.4h-2.4v6.4h-2.2v-14.1h6.9c3,0,4.8,1.6,4.8,3.8s-1.7,3.8-4.5,3.9l4.9,6.4ZM-626.6,386.2h4.8c1.6,0,2.5-.8,2.5-2s-.9-1.9-2.5-1.9h-4.8v3.9Z"/>
      <path class="st2" d="M-611.2,391l-1.6,3.4h-2.4l6.5-14.1h2.3l6.5,14.1h-2.4l-1.6-3.4h-7.2ZM-607.6,382.9l-2.7,6.3h5.5l-2.8-6.3Z"/>
      <path class="st2" d="M-583.3,390.2s-.4.9-.5,1c-1.7,2.5-3.9,3.5-6.9,3.6h-.4c-4.5,0-7.8-3.1-7.8-7.3s3.4-7.3,8-7.3,6.3,1.8,7.5,4.6h-2.4c-1-1.6-2.8-2.6-5.1-2.6-3.4,0-5.8,2.2-5.8,5.3s.3,2,.7,2.8h0c.9,1.5,2.7,2.5,4.8,2.6h.4c1.9,0,4-.9,4.9-2.7h2.5Z"/>
      <path class="st2" d="M-580.9,387.4c0-4.3,3.4-7.3,8-7.3s8,3,8,7.3-3.4,7.3-8,7.3-8-3-8-7.3ZM-567.1,387.4c0-3.2-2.4-5.3-5.8-5.3s-5.8,2.2-5.8,5.3,2.4,5.4,5.8,5.4,5.8-2.2,5.8-5.4Z"/>
      <path class="st2" d="M-545.4,394.5h-2.5l-4-11.2-4,11.2h-2.5l-5.1-14.1h2.4l4,11.4,4.1-11.4h2.4l4.1,11.4,4-11.4h2.4l-5.1,14.1Z"/>
      <path class="st2" d="M-524.8,394.5h-1.9l-8.4-10.4v10.4h-2.2v-14.1h1.9l8.3,10.4v-10.4h2.2v14.1Z"/>
      <path class="st2" d="M-520.2,394.5v-14.1h2.2v14.1h-2.2Z"/>
      <path class="st2" d="M-510.9,391l-1.6,3.4h-2.4l6.5-14.1h2.3l6.5,14.1h-2.4l-1.6-3.4h-7.2ZM-507.3,382.9l-2.7,6.3h5.5l-2.8-6.3Z"/>
      <path class="st2" d="M-488.8,390.7v3.8h-2.2v-14.1h2.2v7.3l7.3-7.3h2.9l-6.3,6.4,6.9,7.7h-2.8l-5.6-6.2-2.3,2.4Z"/>
      <path class="st2" d="M-472.5,391l-1.6,3.4h-2.4l6.5-14.1h2.3l6.5,14.1h-2.4l-1.6-3.4h-7.2ZM-468.9,382.9l-2.7,6.3h5.5l-2.8-6.3Z"/>
      <path class="st2" d="M-444.2,394.5v-10.9l-4.8,9.4h-2.2l-4.8-9.4v10.9h-2.2v-14.1h3l5.1,10.1,5.2-10.1h3v14.1h-2.2Z"/>
      <path class="st2" d="M-437.5,394.5v-14.1h2.2v14.1h-2.2Z"/>
      <path class="st2" d="M-419.7,394.5h-11v-14.1h10.8v1.9h-8.6v4.1h7.5v1.9h-7.5v4.2h8.8v1.9Z"/>
      <path class="st2" d="M-403.6,394.5h-1.9l-8.4-10.4v10.4h-2.2v-14.1h1.9l8.3,10.4v-10.4h2.2v14.1Z"/>
      <path class="st2" d="M-399,394.5v-14.1h2.2v14.1h-2.2Z"/>
      <path class="st2" d="M-389.7,391l-1.6,3.4h-2.4l6.5-14.1h2.3l6.5,14.1h-2.4l-1.6-3.4h-7.2ZM-386.1,382.9l-2.7,6.3h5.5l-2.8-6.3Z"/>
      <path class="st2" d="M-363.4,394.5h-2.8l-4.7-6.4h-2.4v6.4h-2.2v-14.1h6.9c3,0,4.8,1.6,4.8,3.8s-1.7,3.8-4.5,3.9l4.9,6.4ZM-373.3,386.2h4.8c1.6,0,2.5-.8,2.5-2s-.9-1.9-2.5-1.9h-4.8v3.9Z"/>
      <path class="st2" d="M-361.4,392.9l1.3-1.5c1.4,1,3.4,1.5,5.3,1.5s3.7-.8,3.7-2.2-1.8-1.8-3.5-2.1h-.4c-4.6-.8-5.8-1.9-5.8-4,0-3.4,3.4-4.4,6.2-4.4s4.1.7,5.7,1.6l-1.3,1.5c-1.5-.8-2.9-1.2-4.4-1.2-2.6,0-3.9.9-3.9,2.3s.9,1.7,3.9,2.1c2,.3,5.8.8,5.8,4s-2.3,4.2-6,4.2-5.2-1-6.5-1.9Z"/>
      <path class="st2" d="M-343,390.7v3.8h-2.2v-14.1h2.2v7.3l7.3-7.3h2.9l-6.3,6.4,6.9,7.7h-2.8l-5.6-6.2-2.3,2.4Z"/>
      <path class="st2" d="M-326.7,391l-1.6,3.4h-2.4l6.5-14.1h2.3l6.5,14.1h-2.4l-1.6-3.4h-7.2ZM-323.1,382.9l-2.7,6.3h5.5l-2.8-6.3Z"/>
    </g>
  </g>
  <path class="st0" d="M-297.1,245.7c-13.5,0-24.4,14-24.4,31.3s10.9,31.3,24.4,31.3,24.4-14,24.4-31.3-10.9-31.3-24.4-31.3M-248.2,277c0,34.7-21.9,62.8-49,62.8s-49-28.1-49-62.8,21.9-62.8,49-62.8,49,28.1,49,62.8"/>
  <path class="st0" d="M-688.7,272.6c0,1.7,1,2.8,2.8,2.8,2.6,0,16.8-3.8,29.6-3.8s7.4-.7,7.4-4.8c0-9-10.8-28-16.3-28-7.9,0-23.5,23.2-23.5,33.8M-650.4,337.3c-1.3,0-5.5.4-5.5-1.7,0-4.1,11.2-18.6,11.2-35.3s-6.3-9-12.8-9c-13.3,0-34.4,2.3-34.4,18.9s9.5,23.9,9.5,26.1-.9,1-2.8,1h-20.8c-7.4,0-9.5-13.1-9.5-32.1,0-62.4,43.3-91.3,49.7-91.3s42.4,20.8,42.4,88.4-6.3,35-10.6,35h-16.3Z"/>
  <path class="st0" d="M-615.4,212.3v129.1c0,4,3.2,7.2,7.2,7.2h117c4,0,7.2-3.2,7.2-7.2v-129.1c0-4-3.2-7.2-7.2-7.2h-117c-4,0-7.2,3.2-7.2,7.2ZM-520.5,337.3c-1.8,0-5.2.4-5.2-2.2s2.9-10.8,5.2-26.2c1.7-10.8,3.1-24.5,3.1-40.1s.4-21-4.4-21-9.8,14.4-11.2,17.9c-12.2,29.9-10.2,36.6-16.7,36.6s-7.8-6.7-20.8-36.6c-1.5-3.2-6.3-17.9-10.8-17.9s-4.7,17.9-4.7,21c0,38,9.2,64.3,9.2,66.3s-3.5,2.2-5.2,2.2c-3.6,0-23.6,2.8-23.6-51.9s21-69.3,23.5-69.3c5.7,0,7.7,0,14.9,9.8,13.7,18.8,14.6,29.4,17.5,29.4s3.1-10.6,18.5-29.4c8.2-9.9,10.3-9.8,16-9.8s21.4-2.6,21.4,69.3-23,51.9-26.7,51.9Z"/>
  <path class="st0" d="M-468,337.8c-3.6,0-8,2.8-8-51.9s7.6-69.3,10.1-69.3h15.7c1.9,0,5.5-.4,5.5,2.3s-7.7,25.8-7.7,53.9,7.3,61.3,7.3,63.4-.9,1.6-2.2,1.6h-20.7Z"/>
  <path class="st0" d="M-439.6,280.1c0-31.6,17.8-66.1,53.2-66.1s32.2,5.4,32.2,21.1-5.8,13.3-15,13.3,2-13.7-16.5-13.7-30.3,21.7-30.3,39.9c0,27.8,18.9,39,31.6,39,23.7,0,25.8-21.3,27.1-21.3,2,0,3.2,11.7,3.2,13.1,0,21.6-16.6,34.1-37,34.1-33.1,0-48.5-30-48.5-59.4"/>
  <g class="st3">
    <g class="st3">
      <path class="st2" d="M-1571.3,394.5h-2.2v-14.1h6.9c3,0,4.8,1.6,4.8,3.8s-1.8,3.9-4.8,3.9h-4.8v6.4ZM-1566.5,386.2c1.6,0,2.5-.8,2.5-2s-.9-1.9-2.5-1.9h-4.8v3.9h4.8Z"/>
      <path class="st2" d="M-1546.1,394.5h-2.8l-4.7-6.4h-2.4v6.4h-2.2v-14.1h6.9c3,0,4.8,1.6,4.8,3.8s-1.7,3.8-4.5,3.9l4.9,6.4ZM-1556,386.2h4.8c1.6,0,2.5-.8,2.5-2s-.9-1.9-2.5-1.9h-4.8v3.9Z"/>
      <path class="st2" d="M-1540.6,391l-1.6,3.4h-2.4l6.5-14.1h2.3l6.5,14.1h-2.4l-1.6-3.4h-7.2ZM-1537,382.9l-2.7,6.3h5.5l-2.8-6.3Z"/>
      <path class="st2" d="M-1512.7,390.2s-.4.9-.5,1c-1.7,2.5-3.9,3.5-6.9,3.6h-.4c-4.5,0-7.8-3.1-7.8-7.3s3.4-7.3,8-7.3,6.3,1.8,7.5,4.6h-2.4c-1-1.6-2.8-2.6-5.1-2.6-3.4,0-5.8,2.2-5.8,5.3s.3,2,.7,2.8h0c.9,1.5,2.7,2.5,4.8,2.6h.4c1.9,0,4-.9,4.9-2.7h2.5Z"/>
      <path class="st2" d="M-1510.3,387.4c0-4.3,3.4-7.3,8-7.3s8,3,8,7.3-3.4,7.3-8,7.3-8-3-8-7.3ZM-1496.5,387.4c0-3.2-2.4-5.3-5.8-5.3s-5.8,2.2-5.8,5.3,2.4,5.4,5.8,5.4,5.8-2.2,5.8-5.4Z"/>
      <path class="st2" d="M-1474.7,394.5h-2.5l-4-11.2-4,11.2h-2.5l-5.1-14.1h2.4l4,11.4,4.1-11.4h2.4l4.1,11.4,4-11.4h2.4l-5.1,14.1Z"/>
      <path class="st2" d="M-1454.1,394.5h-1.9l-8.4-10.4v10.4h-2.2v-14.1h1.9l8.3,10.4v-10.4h2.2v14.1Z"/>
      <path class="st2" d="M-1449.5,394.5v-14.1h2.2v14.1h-2.2Z"/>
      <path class="st2" d="M-1440.3,391l-1.6,3.4h-2.4l6.5-14.1h2.3l6.5,14.1h-2.4l-1.6-3.4h-7.2ZM-1436.7,382.9l-2.7,6.3h5.5l-2.8-6.3Z"/>
      <path class="st2" d="M-1418.2,390.7v3.8h-2.2v-14.1h2.2v7.3l7.3-7.3h2.9l-6.3,6.4,6.9,7.7h-2.8l-5.6-6.2-2.3,2.4Z"/>
      <path class="st2" d="M-1401.9,391l-1.6,3.4h-2.4l6.5-14.1h2.3l6.5,14.1h-2.4l-1.6-3.4h-7.2ZM-1398.3,382.9l-2.7,6.3h5.5l-2.8-6.3Z"/>
      <path class="st2" d="M-1373.6,394.5v-10.9l-4.8,9.4h-2.2l-4.8-9.4v10.9h-2.2v-14.1h3l5.1,10.1,5.2-10.1h3v14.1h-2.2Z"/>
      <path class="st2" d="M-1366.9,394.5v-14.1h2.2v14.1h-2.2Z"/>
      <path class="st2" d="M-1349.1,394.5h-11v-14.1h10.8v1.9h-8.6v4.1h7.5v1.9h-7.5v4.2h8.8v1.9Z"/>
      <path class="st2" d="M-1333,394.5h-1.9l-8.4-10.4v10.4h-2.2v-14.1h1.9l8.3,10.4v-10.4h2.2v14.1Z"/>
      <path class="st2" d="M-1328.4,394.5v-14.1h2.2v14.1h-2.2Z"/>
      <path class="st2" d="M-1319.1,391l-1.6,3.4h-2.4l6.5-14.1h2.3l6.5,14.1h-2.4l-1.6-3.4h-7.2ZM-1315.5,382.9l-2.7,6.3h5.5l-2.8-6.3Z"/>
      <path class="st2" d="M-1292.8,394.5h-2.8l-4.7-6.4h-2.4v6.4h-2.2v-14.1h6.9c3,0,4.8,1.6,4.8,3.8s-1.7,3.8-4.5,3.9l4.9,6.4ZM-1302.7,386.2h4.8c1.6,0,2.5-.8,2.5-2s-.9-1.9-2.5-1.9h-4.8v3.9Z"/>
      <path class="st2" d="M-1290.8,392.9l1.3-1.5c1.4,1,3.4,1.5,5.3,1.5s3.7-.8,3.7-2.2-1.8-1.8-3.5-2.1h-.4c-4.6-.8-5.8-1.9-5.8-4,0-3.4,3.4-4.4,6.2-4.4s4.1.7,5.7,1.6l-1.3,1.5c-1.5-.8-2.9-1.2-4.4-1.2-2.6,0-3.9.9-3.9,2.3s.9,1.7,3.9,2.1c2,.3,5.8.8,5.8,4s-2.3,4.2-6,4.2-5.2-1-6.5-1.9Z"/>
      <path class="st2" d="M-1272.4,390.7v3.8h-2.2v-14.1h2.2v7.3l7.3-7.3h2.9l-6.3,6.4,6.9,7.7h-2.8l-5.6-6.2-2.3,2.4Z"/>
      <path class="st2" d="M-1256.1,391l-1.6,3.4h-2.4l6.5-14.1h2.3l6.5,14.1h-2.4l-1.6-3.4h-7.2ZM-1252.5,382.9l-2.7,6.3h5.5l-2.8-6.3Z"/>
    </g>
  </g>
  <path class="st2" d="M-1226.5,245.7c-13.5,0-24.4,14-24.4,31.3s10.9,31.3,24.4,31.3,24.4-14,24.4-31.3-10.9-31.3-24.4-31.3M-1177.6,277c0,34.7-21.9,62.8-49,62.8s-49-28.1-49-62.8,21.9-62.8,49-62.8,49,28.1,49,62.8"/>
  <path class="st2" d="M-1618.1,272.6c0,1.7,1,2.8,2.8,2.8,2.6,0,16.8-3.8,29.6-3.8s7.4-.7,7.4-4.8c0-9-10.8-28-16.3-28-7.9,0-23.5,23.2-23.5,33.8M-1579.8,337.3c-1.3,0-5.5.4-5.5-1.7,0-4.1,11.2-18.6,11.2-35.3s-6.3-9-12.8-9c-13.3,0-34.4,2.3-34.4,18.9s9.5,23.9,9.5,26.1-.9,1-2.8,1h-20.8c-7.4,0-9.5-13.1-9.5-32.1,0-62.4,43.3-91.3,49.7-91.3s42.4,20.8,42.4,88.4-6.3,35-10.6,35h-16.3Z"/>
  <path class="st2" d="M-1544.8,212.3v129.1c0,4,3.2,7.2,7.2,7.2h117c4,0,7.2-3.2,7.2-7.2v-129.1c0-4-3.2-7.2-7.2-7.2h-117c-4,0-7.2,3.2-7.2,7.2ZM-1449.9,337.3c-1.8,0-5.2.4-5.2-2.2s2.9-10.8,5.2-26.2c1.7-10.8,3.1-24.5,3.1-40.1s.4-21-4.4-21-9.8,14.4-11.2,17.9c-12.2,29.9-10.2,36.6-16.7,36.6s-7.8-6.7-20.8-36.6c-1.5-3.2-6.3-17.9-10.8-17.9s-4.7,17.9-4.7,21c0,38,9.2,64.3,9.2,66.3s-3.5,2.2-5.2,2.2c-3.6,0-23.6,2.8-23.6-51.9s21-69.3,23.5-69.3c5.7,0,7.7,0,14.9,9.8,13.7,18.8,14.6,29.4,17.5,29.4s3.1-10.6,18.5-29.4c8.2-9.9,10.3-9.8,16-9.8s21.4-2.6,21.4,69.3-23,51.9-26.7,51.9Z"/>
  <path class="st2" d="M-1397.4,337.8c-3.6,0-8,2.8-8-51.9s7.6-69.3,10.1-69.3h15.7c1.9,0,5.5-.4,5.5,2.3s-7.7,25.8-7.7,53.9,7.3,61.3,7.3,63.4-.9,1.6-2.2,1.6h-20.7Z"/>
  <path class="st2" d="M-1369,280.1c0-31.6,17.8-66.1,53.2-66.1s32.2,5.4,32.2,21.1-5.8,13.3-15,13.3,2-13.7-16.5-13.7-30.3,21.7-30.3,39.9c0,27.8,18.9,39,31.6,39,23.7,0,25.8-21.3,27.1-21.3,2,0,3.2,11.7,3.2,13.1,0,21.6-16.6,34.1-37,34.1-33.1,0-48.5-30-48.5-59.4"/>
</svg>